HIERARCHY
ROOT Hips
{
	OFFSET 0.000000 0.000000 0.000000
	CHANNELS 6 Xposition Yposition Zposition Zrotation Yrotation Xrotation 
	JOINT LHipJoint
	{
		OFFSET 0.000000 0.000000 0.000000
		CHANNELS 3 Zrotation Yrotation Xrotation
		JOINT LeftUpLeg
		{
			OFFSET 8.178360 -10.767780 5.035740
			CHANNELS 3 Zrotation Yrotation Xrotation
			JOINT LeftLeg
			{
				OFFSET 14.688660 -40.356780 0.000000
				CHANNELS 3 Zrotation Yrotation Xrotation
				JOINT LeftFoot
				{
					OFFSET 15.373200 -42.237540 0.000000
					CHANNELS 3 Zrotation Yrotation Xrotation
					JOINT LeftToeBase
					{
						OFFSET 0.945840 -2.598660 13.935300
						CHANNELS 3 Zrotation Yrotation Xrotation
						End Site
						{
							OFFSET 0.000000 0.000000 0.000000
						}
					}
				}
			}
		}
	}
	JOINT RHipJoint
	{
		OFFSET 0.000000 0.000000 0.000000
		CHANNELS 3 Zrotation Yrotation Xrotation
		JOINT RightUpLeg
		{
			OFFSET -7.833120 -10.767780 5.035740
			CHANNELS 3 Zrotation Yrotation Xrotation
			JOINT RightLeg
			{
				OFFSET -15.255180 -41.913300 0.000000
				CHANNELS 3 Zrotation Yrotation Xrotation
				JOINT RightFoot
				{
					OFFSET -15.409560 -42.337380 0.000000
					CHANNELS 3 Zrotation Yrotation Xrotation
					JOINT RightToeBase
					{
						OFFSET -0.988380 -2.715540 14.178900
						CHANNELS 3 Zrotation Yrotation Xrotation
						End Site
						{
							OFFSET 0.000000 0.000000 0.000000
						}
					}
				}
			}
		}
	}
	JOINT LowerBack
	{
		OFFSET 0.000000 0.000000 0.000000
		CHANNELS 3 Zrotation Yrotation Xrotation
		JOINT Spine
		{
			OFFSET 0.169620 12.213540 -1.160280
			CHANNELS 3 Zrotation Yrotation Xrotation
			JOINT Spine1
			{
				OFFSET 0.340320 12.293100 -0.256500
				CHANNELS 3 Zrotation Yrotation Xrotation
				JOINT Neck
				{
					OFFSET 0.000000 0.000000 0.000000
					CHANNELS 3 Zrotation Yrotation Xrotation
					JOINT Neck1
					{
						OFFSET -0.325020 10.477440 1.032120
						CHANNELS 3 Zrotation Yrotation Xrotation
						JOINT Head
						{
							OFFSET 0.624420 10.568160 -0.743820
							CHANNELS 3 Zrotation Yrotation Xrotation
							End Site
							{
								OFFSET 0.000000 0.000000 0.000000
							}
						}
					}
				}
				JOINT LeftShoulder
				{
					OFFSET 0.000000 0.000000 0.000000
					CHANNELS 3 Zrotation Yrotation Xrotation
					JOINT LeftArm
					{
						OFFSET 20.174460 7.205340 -1.867260
						CHANNELS 3 Zrotation Yrotation Xrotation
						JOINT LeftForeArm
						{
							OFFSET 29.898000 -0.000000 -0.000000
							CHANNELS 3 Zrotation Yrotation Xrotation
							JOINT LeftHand
							{
								OFFSET 20.901360 -0.000000 -0.000000
								CHANNELS 3 Zrotation Yrotation Xrotation
								JOINT LeftFingerBase
								{
									OFFSET 0.000000 0.000000 0.000000
									CHANNELS 3 Zrotation Yrotation Xrotation
									JOINT LeftHandIndex1
									{
										OFFSET 4.291560 -0.000000 -0.000000
										CHANNELS 3 Zrotation Yrotation Xrotation
										End Site
										{
											OFFSET 0.000000 0.000000 0.000000
										}
									}
								}
								JOINT LThumb
								{
									OFFSET 0.000000 0.000000 0.000000
									CHANNELS 3 Zrotation Yrotation Xrotation
									End Site
									{
										OFFSET 0.000000 0.000000 0.000000
									}
								}
							}
						}
					}
				}
				JOINT RightShoulder
				{
					OFFSET 0.000000 0.000000 0.000000
					CHANNELS 3 Zrotation Yrotation Xrotation
					JOINT RightArm
					{
						OFFSET -18.819600 8.244300 -2.427900
						CHANNELS 3 Zrotation Yrotation Xrotation
						JOINT RightForeArm
						{
							OFFSET -31.451400 -0.000000 -0.000000
							CHANNELS 3 Zrotation Yrotation Xrotation
							JOINT RightHand
							{
								OFFSET -20.665020 -0.000000 -0.000000
								CHANNELS 3 Zrotation Yrotation Xrotation
								JOINT RightFingerBase
								{
									OFFSET 0.000000 0.000000 0.000000
									CHANNELS 3 Zrotation Yrotation Xrotation
									JOINT RightHandIndex1
									{
										OFFSET -3.735180 -0.000000 -0.000000
										CHANNELS 3 Zrotation Yrotation Xrotation
										End Site
										{
											OFFSET 0.000000 0.000000 0.000000
										}
									}
								}
								JOINT RThumb
								{
									OFFSET 0.000000 0.000000 0.000000
									CHANNELS 3 Zrotation Yrotation Xrotation
									End Site
									{
										OFFSET 0.000000 0.000000 0.000000
									}
								}
							}
						}
					}
				}
			}
		}
	}
}
MOTION
Frames:	5
Frame Time:	0.0333333
-0.345048 107.870280 10.005288 0.284670 -1.901728 4.377132 -1.426903 2.203700 2.703188 -19.618717 -2.191788 -3.631999 -0.939543 2.759551 9.817394 -0.011215 -0.786770 -2.828500 0.166600 -2.629900 -7.250100 -0.674801 -1.797175 0.835117 23.407692 6.589018 -6.709164 -1.554151 -7.215629 22.156269 -0.376180 1.010807 -6.558452 -0.001200 -0.225100 0.618400 -0.726136 -1.067344 3.110123 1.896263 -1.441807 0.841008 0.867614 -0.795893 -4.743753 -16.022257 -12.297665 -14.784917 12.219785 -14.153323 13.135013 5.250100 -6.424400 12.001100 -6.166146 0.073786 -1.682366 -85.848478 6.310842 17.119131 18.514602 -25.896214 -4.853697 -0.811018 -1.865493 5.113572 18.955839 20.927935 7.886300 -7.125000 0.000000 0.000000 -9.910200 53.836800 -2.169500 4.963936 1.588674 -0.790647 85.541200 -2.477291 13.599203 -16.949480 24.594770 -3.689399 0.249295 -0.159440 6.952059 -14.273807 9.838216 -2.568300 7.125000 0.000000 0.000000 8.856000 -19.759700 5.404900 
-0.391968 107.878002 9.954216 0.372790 -1.936105 4.423065 -1.428463 2.200816 2.700977 -19.691184 -2.162856 -3.633343 -0.951161 2.700730 9.658076 -0.015329 -0.777663 -2.735302 0.176200 -2.704200 -7.456200 -0.674148 -1.797715 0.837457 23.328704 6.634853 -6.804166 -1.558933 -7.230121 22.194112 -0.375823 1.001470 -6.571875 -0.001200 -0.220300 0.605300 -0.831570 -1.127365 3.182330 1.889105 -1.529963 0.847548 0.935275 -0.835145 -4.764570 -15.833293 -12.271050 -15.122917 12.063967 -14.109445 13.243191 5.161000 -6.390400 12.074300 -6.156223 0.063221 -1.686171 -85.836048 6.271689 17.347816 18.677073 -26.110825 -4.942859 -0.783068 -1.908718 4.726848 18.729834 21.495480 7.973100 -7.125000 0.000000 0.000000 -10.408100 54.403800 -2.424900 4.958310 1.579306 -0.797685 85.554584 -2.466738 13.915446 -17.064121 24.755629 -3.743257 0.249392 -0.158651 6.899501 -14.256424 9.875719 -2.574400 7.125000 0.000000 0.000000 8.867500 -19.723100 5.419400 
-0.471552 107.878596 9.888888 0.195351 -1.855557 4.446780 -1.430647 2.200474 2.699791 -19.435586 -2.278633 -3.774405 -0.940442 2.767545 9.828844 -0.004236 -0.868324 -2.799786 0.185600 -2.775100 -7.653100 -0.677741 -1.797365 0.836786 23.597104 6.653192 -6.808241 -1.545684 -7.197546 22.104774 -0.354800 0.873299 -6.512677 -0.000300 -0.110500 0.303700 -0.694641 -1.192133 3.239358 1.992768 -1.608479 0.841456 1.017219 -0.876773 -4.800368 -15.940968 -12.294816 -15.149352 12.158629 -14.118748 13.269179 5.211900 -6.391400 12.108500 -6.150434 0.068200 -1.686230 -85.896674 6.250528 17.175071 18.731982 -26.180753 -4.983763 -0.855498 -1.744574 5.517179 19.824536 19.145440 7.635200 -7.125000 0.000000 0.000000 -8.292300 52.065100 -1.450600 4.960046 1.586854 -0.794338 85.500490 -2.481443 13.819261 -17.056053 24.732649 -3.736400 0.255816 -0.142545 7.332556 -14.547047 9.052921 -2.410100 7.125000 0.000000 0.000000 8.679000 -20.565300 5.135600 
-0.510744 107.892846 9.871662 0.296701 -1.752540 4.516749 -1.431813 2.204371 2.699321 -19.543004 -2.362370 -3.649997 -0.964797 2.649563 9.507594 -0.010727 -0.861787 -2.639363 0.187500 -2.789200 -7.692300 -0.675845 -1.796495 0.835938 23.489252 6.567726 -6.964787 -1.552239 -7.215670 22.152360 -0.366799 0.936457 -6.574126 -0.000100 -0.060300 0.165600 -0.723443 -1.199871 3.147715 1.993023 -1.618278 0.906166 1.035423 -0.886304 -4.658737 -16.011239 -12.353737 -15.123342 12.353290 -14.169386 13.032339 5.278300 -6.401000 12.045500 -6.149040 0.075733 -1.685674 -85.872626 6.145822 17.585564 18.815976 -26.287077 -5.031181 -0.854820 -1.764650 5.371659 19.895708 19.452110 7.776400 -7.125000 0.000000 0.000000 -8.330700 52.412800 -1.528600 4.960596 1.599389 -0.784311 85.478794 -2.311343 13.664240 -16.953861 24.595490 -3.689266 0.258480 -0.147069 7.329792 -14.666735 9.213099 -2.474200 7.125000 0.000000 0.000000 8.586800 -20.391600 5.113700 
-0.579636 107.887500 9.883542 0.200936 -1.686280 4.535635 -1.428852 2.211035 2.702025 -19.427686 -2.404558 -3.585579 -0.974625 2.601168 9.372926 -0.013175 -0.866403 -2.540692 0.209400 -2.946000 -8.128400 -0.677510 -1.795990 0.833292 23.653686 6.766972 -6.881334 -1.544962 -7.204921 22.120260 -0.354699 0.802815 -6.709949 -0.009300 -0.624300 1.715600 -0.606913 -1.174843 3.081734 2.001309 -1.575284 1.001012 0.982138 -0.870267 -4.493439 -15.766656 -12.428196 -15.394417 12.197280 -14.277027 12.987921 5.147600 -6.432800 12.066400 -6.143918 0.061986 -1.681767 -85.718963 6.020320 17.807552 18.884893 -26.383160 -5.070514 -0.856466 -1.773410 5.297030 19.993238 19.626098 7.880300 -7.125000 0.000000 0.000000 -8.293000 52.618300 -1.563500 4.957126 1.587794 -0.791393 85.533897 -2.400850 13.558000 -17.123664 24.830785 -3.768054 0.254853 -0.123073 7.641797 -14.450100 8.211331 -2.169800 7.125000 0.000000 0.000000 8.777700 -21.449200 5.018000 
